PathFileType	4	(X/Y/Z)	0_1_24_p0_0-342.trc
DataRate	CameraRate	NumFrames	NumMarkers	Units	OrigDataRate	OrigDataStartFrame	OrigNumFrames
60	60	6	27	m	60	128	342
Frame#	Time	RHip			RKnee			RAnkle			RBigToe			RSmallToe			RHeel			LHip			LKnee			LAnkle			LBigToe			LSmallToe			LHeel			Neck			Head			Nose			RShoulder			RElbow			RWrist			RThumb			RIndex			RPinky			LShoulder			LElbow			LWrist			LThumb			LIndex			LPinky		
		X1	Y1	Z1	X2	Y2	Z2	X3	Y3	Z3	X4	Y4	Z4	X5	Y5	Z5	X6	Y6	Z6	X7	Y7	Z7	X8	Y8	Z8	X9	Y9	Z9	X10	Y10	Z10	X11	Y11	Z11	X12	Y12	Z12	X13	Y13	Z13	X14	Y14	Z14	X15	Y15	Z15	X16	Y16	Z16	X17	Y17	Z17	X18	Y18	Z18	X19	Y19	Z19	X20	Y20	Z20	X21	Y21	Z21	X22	Y22	Z22	X23	Y23	Z23	X24	Y24	Z24	X25	Y25	Z25	X26	Y26	Z26	X27	Y27	Z27
129	2.15	0.14643615700558835	0.21468283213269287	0.019371428501273272	0.15310661231548833	0.18866157951238785	-0.400259345469888	0.15987623223244368	0.19980785296215858	-0.7902048887922761	0.174331120908622	0.037504255850323846	-0.7733082564527773	0.1068042435661041	0.06886813936860263	-0.7875263780845639	0.16420352308495742	0.22474238311527522	-0.8363529758710476	0.3459508807490476	0.19327876549271708	0.024282516157137852	0.3653824773507768	0.2087486410230845	-0.4126209581056257	0.36065010527708474	0.22012925993568405	-0.8208917094396823	0.3269784442961131	0.05541901079497236	-0.7857127034542272	0.3778023402469871	0.10944340378056835	-0.8084925686016796	0.33419301268097706	0.2737635029505117	-0.87426574721975	0.23537435178451876	0.24663676091873948	0.5466698182462041	0.20117436065566888	0.15725378542063959	0.804898786079429	0.2145254530098572	0.10064999084197163	0.6790504952089325	0.07039423087390993	0.23451443388279355	0.49509787286801743	-0.0090860404457768	0.3238970405427879	0.2606675575404122	0.079171442946153	0.10743898758112776	0.19718563523497387	0.1915398330780574	0.03107842291373265	0.17467626338210082	0.1947126580910441	-0.007386395486063234	0.17108192328491484	0.14916215233359822	0.04271609126154343	0.12378584004335512	0.3666744154427073	0.24366281028480333	0.4907043641496592	0.4736921792287169	0.3243521567747498	0.23572812415841252	0.4441813772022384	0.16148434806123715	0.06249737314894547	0.4161866817938305	0.15435950725561823	-0.02785785879126111	0.434715376357664	0.1359555850449828	-0.049470020171326505	0.46252642268946076	0.18655092148488167	-0.07285169785531845
130	2.1666666666666665	0.14621348044090973	0.21549640479496204	0.023320618595741808	0.14805647846407669	0.1745372065202525	-0.38269160296737365	0.15986454207205877	0.19970686345949265	-0.7901349176196791	0.1745729928023602	0.036932707371993174	-0.773062889903493	0.10691830281333278	0.06860112867312142	-0.7874557828750376	0.16065443513804226	0.23766513655964044	-0.8455210752702434	0.3457097529938911	0.19339467567617435	0.02767339369919021	0.3651464045519745	0.2117437266905185	-0.40477294817344533	0.359687804767074	0.22100950663664365	-0.8166475865418301	0.325962750231384	0.05580126132105029	-0.7813669368614158	0.37162221752423147	0.09642245131193615	-0.7984177009316542	0.33395237642772563	0.27416230920591206	-0.874263459582325	0.23545886412363085	0.24657256817151574	0.5465575642316599	0.20126666185795547	0.15734881747895327	0.8049221463344145	0.21448756318974171	0.10010203795734242	0.675690844391155	0.07329696027313667	0.2231344320952241	0.4977874338391215	-0.008798694102891063	0.32224563711182874	0.2569679649410153	0.08391223194287059	0.10702007630616904	0.2135386865634029	0.2017105199558793	0.03325472488712068	0.21780221866690017	0.20223301319156076	-0.0014775986240034291	0.20645412261152277	0.1547802910598701	0.040944697884010714	0.14894037156554493	0.3726480264369232	0.22970224236243147	0.49390284290591685	0.47695593934816904	0.2945236804472818	0.2326143079062044	0.4503290662842297	0.1729921328303172	0.05362464783260919	0.42510480064152273	0.1755367892888554	-0.04315565679443965	0.4404627586750344	0.14940552807617785	-0.06027969621778775	0.48057969977612913	0.20992414894405914	-0.08834714846940071
131	2.183333333333333	0.14656010296472027	0.2169376294570269	0.035314673341539815	0.14808267175560091	0.174163085287017	-0.38239191264269645	0.15985724521155928	0.19994573358661794	-0.7904303629735294	0.17446950587459467	0.03718425371269957	-0.7731992362070333	0.10690351279466946	0.06885666997129378	-0.7876180551879672	0.16406505599324656	0.22517668229789864	-0.8365853293180019	0.3458419321066216	0.19494567867051255	0.04024434955803757	0.37152254487213815	0.22439221055802014	-0.4074249317450006	0.3539829756404365	0.236109351529734	-0.8318869290677492	0.32251334408817817	0.05685315035807186	-0.786615608250977	0.36633630684999896	0.0824798298174743	-0.792195491541505	0.3350615739561508	0.27348004585641866	-0.8791342125931338	0.23535820110605124	0.2468458072409072	0.5423468837792027	0.20914477277553556	0.16706952880253217	0.8034538985742894	0.214514167105555	0.09984710942534912	0.6756937030774236	0.0733573929478891	0.2231535453773112	0.49779162733817056	-0.0053518339190144525	0.31060026577762967	0.2645892436489906	0.0845081309903165	0.11031325805040545	0.23615478197523485	0.21288690794684575	0.009915089546886188	0.25411333863441427	0.209862287586426	-0.011262241692869341	0.2520949095135169	0.15853811203702087	0.03566664676881395	0.18210114341182335	0.3726909649504555	0.22952593117558992	0.493811426547775	0.4767775067656944	0.2933960624648338	0.2324474344719251	0.45464876930331033	0.19971793194387288	0.034183222041524866	0.42412756413479996	0.17905910173810674	-0.05559483618952212	0.4440618910886177	0.1475633641500352	-0.07336614481187248	0.4871594076535593	0.22456578560013374	-0.10053140448523439
132	2.2	0.15167439598519106	0.2304537349987889	0.029789645905247176	0.15364775107108722	0.18916615316941654	-0.38663851299116747	0.15572441850509972	0.2015050077850672	-0.7912884461703769	0.1737659716089149	0.03739031147340957	-0.7693560515763562	0.10700129752906189	0.06859760473645644	-0.7874481636060225	0.1604649893432776	0.23898703683765374	-0.8458429068049443	0.34593981869211193	0.1952765635140582	0.040737220202187244	0.37165885060956283	0.22472407091052182	-0.407506031795581	0.3478247164910058	0.22184460310070422	-0.8214379690900587	0.3267751029704752	0.054367114818570025	-0.7848843917759644	0.36627547906783176	0.08213527464138617	-0.7919489439654022	0.33482252023507	0.27370338473869676	-0.8792103722408878	0.23542892570000773	0.24683166002242038	0.5422325376859134	0.20923396704959799	0.16722846177015208	0.8033587788249844	0.21452434636563336	0.09987615204603177	0.6755529068601052	0.07736508285101486	0.23607796465432312	0.4944339955182749	-0.000981933341704197	0.30912326489291664	0.26363900226436193	0.08927732616174863	0.12597140732749257	0.2537694188379811	0.20371109207354673	0.028243455750444308	0.2633893735653642	0.2097560397496846	-0.010656859322505078	0.2617680256643898	0.1600117018424582	0.06266127071533871	0.19409525092777857	0.37285285939110724	0.22840901876230757	0.49079841034663757	0.47651259382746874	0.29172059433445324	0.22816837627309156	0.4609353218274455	0.21094509878251594	0.02102021576723451	0.42868286809266093	0.20201602114450298	-0.07898212327876919	0.44590205102725133	0.16177415338846704	-0.0892208507197818	0.49381276602156876	0.23813630545290318	-0.10787899936109983
133	2.216666666666667	0.15645835518133688	0.24592108630074722	0.03113894054322184	0.15796553101180968	0.18715951992711327	-0.3856642016192207	0.15984569358736156	0.1998011865931599	-0.7901662166688419	0.17895262862902786	0.05148042587214734	-0.7797401018425338	0.11458990937623265	0.05580253339378681	-0.7778820899539622	0.16388458161017358	0.22562141252672835	-0.836367982281653	0.3459746260788271	0.19546679610094594	0.040838989039314495	0.37197486253934925	0.2267864245164158	-0.4036119196162543	0.35323976281979946	0.2378007541479659	-0.8382283168978824	0.32897601378210267	0.043072742096508014	-0.776737145496694	0.372522324469863	0.09546276525663323	-0.8022832355618899	0.3301948941693074	0.27761725486108435	-0.8819449422116712	0.23534603233085843	0.24623349736291789	0.5393103672917798	0.2091840928016038	0.16563068252053822	0.8000028712944843	0.21699921022894478	0.089914344630673	0.6772176584710818	0.07737709753295902	0.23603736531971262	0.4943032877864113	0.006782072592561489	0.3082797415599404	0.2575044104752716	0.08967362272501475	0.1277337653970376	0.26052518286794707	0.2047068742490409	0.008805524271235696	0.29313110706136336	0.20051229715865881	-0.027086129283928128	0.28559079750587807	0.17104350407371596	0.0630989662327956	0.1996126235776924	0.3825528569670293	0.23886450440413698	0.48773827450195617	0.47787517538936874	0.2785831435536235	0.23226292600494777	0.47253812709589826	0.2391693811954992	0.007952075407971305	0.4278819672866436	0.20466198480948172	-0.07965625947105795	0.4439071292087044	0.17092666882047577	-0.10276765680935673	0.4938472900963045	0.2376040984622898	-0.11682051467658679
134	2.2333333333333334	0.1607219212036937	0.24296166544567643	0.0244312556178199	0.15642019436097324	0.1601726912479914	-0.37477297871513726	0.159821128922092	0.20008513866944003	-0.7903248168858448	0.17407282627251502	0.03844794826663092	-0.769527654153343	0.11461760588234825	0.05581437006433547	-0.77774331430894	0.15659705628976042	0.2411298708003114	-0.8466242644706237	0.351843916207401	0.20938140216500103	0.038945315214914955	0.3719520110044764	0.22674150841288923	-0.40350932417796515	0.3531198853245224	0.23785897413452878	-0.8382252960468296	0.32892236389296475	0.04296599756736377	-0.7766329512443971	0.3727756108303238	0.09739141362035629	-0.7985655088659503	0.3301293240001829	0.2778041888602061	-0.8818743694497684	0.2354562137564584	0.24539876352014126	0.5354672212507573	0.20915444287462345	0.16492731939779556	0.7970944685643204	0.21696422298550402	0.08977395468689639	0.6738819186769406	0.07343785674365311	0.22188759671242758	0.49455602541417665	0.00981568673557621	0.29363395527500064	0.2569016405489335	0.09397482403435746	0.14004398896034445	0.256420688963863	0.2019895287523256	0.021591081334988407	0.29271386388209997	0.20159233386361164	-0.01370149147786283	0.2956822439941006	0.16703237074658747	0.05237762994639484	0.21175840775425223	0.3825184279544495	0.23940808310962003	0.48343982354231935	0.4785841114575772	0.2765311410565708	0.225532865882808	0.47925792444167337	0.2521274477046524	-0.001179782924882502	0.4292624963453046	0.20335595961036812	-0.0794967111292735	0.45416112494692235	0.18319579773614833	-0.10453376111205247	0.4946475818946104	0.24036996551265954	-0.11364398263350496
